<svg width="32" height="37" viewBox="0 0 32 37" fill="none" xmlns="http://www.w3.org/2000/svg">
<path d="M27.8045 18.5C27.8048 20.9367 27.2539 23.3306 26.2074 25.4407C25.1608 27.5508 23.6554 29.3028 21.8427 30.5204C20.03 31.738 17.9739 32.3782 15.8811 32.3768C13.7884 32.3753 11.733 31.7322 9.9215 30.512L5.28037 32.3143C5.10541 32.3823 4.91765 32.3921 4.73814 32.3428C4.55863 32.2935 4.39447 32.1869 4.26405 32.0351C4.13363 31.8832 4.04211 31.6921 3.99975 31.4831C3.95739 31.274 3.96586 31.0554 4.0242 30.8517L5.57207 25.4477C4.65714 23.605 4.11856 21.5419 3.99801 19.4181C3.87746 17.2942 4.17817 15.1666 4.87687 13.1997C5.57557 11.2328 6.65353 9.47951 8.02734 8.07539C9.40116 6.67126 11.034 5.65399 12.7995 5.10227C14.565 4.55054 16.4159 4.47917 18.2089 4.89367C20.0019 5.30817 21.6889 6.19743 23.1395 7.49264C24.5901 8.78785 25.7653 10.4543 26.5742 12.363C27.3832 14.2717 27.8041 16.3716 27.8045 18.5Z" fill="black" fill-opacity="0.04"/>
<path d="M15.8883 3.46867C13.6595 3.46811 11.4686 4.13943 9.52882 5.41729C7.589 6.69515 5.96636 8.53602 4.81883 10.7607C3.6713 12.9854 3.03799 15.5181 2.98052 18.1124C2.92306 20.7066 3.44341 23.274 4.49092 25.5646L3.08208 30.4859C2.96538 30.8934 2.94844 31.3306 3.03317 31.7486C3.11789 32.1667 3.30093 32.549 3.56177 32.8527C3.8226 33.1564 4.15093 33.3695 4.50995 33.4682C4.86896 33.5668 5.24448 33.5471 5.59441 33.4112L9.82095 31.7708C11.5522 32.843 13.4706 33.4419 15.4303 33.5219C17.39 33.602 19.3397 33.1612 21.1313 32.2329C22.9228 31.3046 24.5093 29.9133 25.7701 28.1646C27.0309 26.4158 27.933 24.3556 28.4079 22.1403C28.8829 19.925 28.9181 17.6128 28.511 15.3793C28.1039 13.1457 27.2651 11.0495 26.0583 9.2498C24.8516 7.45007 23.3086 5.9941 21.5464 4.9924C19.7842 3.9907 17.8492 3.46961 15.8883 3.46867ZM15.8883 31.2187C13.968 31.2202 12.0814 30.6314 10.4192 29.5118C10.2684 29.4099 10.0971 29.356 9.92274 29.3557C9.8159 29.3557 9.70981 29.3762 9.60869 29.4164L4.96509 31.2187L6.51296 25.8132C6.55757 25.6579 6.57334 25.4933 6.55922 25.3303C6.5451 25.1674 6.5014 25.0098 6.43103 24.868C5.22696 22.4441 4.74353 19.6252 5.05574 16.8487C5.36794 14.0723 6.45833 11.4934 8.15775 9.51209C9.85717 7.53082 12.0706 6.25794 14.4547 5.89091C16.8389 5.52387 19.2604 6.08321 21.3436 7.48214C23.4269 8.88107 25.0554 11.0414 25.9766 13.628C26.8978 16.2146 27.0601 19.0829 26.4384 21.7879C25.8167 24.4928 24.4458 26.8833 22.5382 28.5885C20.6307 30.2937 18.2932 31.2182 15.8883 31.2187ZM17.3778 18.4999C17.3778 18.843 17.2905 19.1783 17.1268 19.4635C16.9631 19.7487 16.7305 19.971 16.4583 20.1023C16.1861 20.2336 15.8866 20.2679 15.5977 20.201C15.3088 20.1341 15.0434 19.9689 14.835 19.7263C14.6267 19.4838 14.4849 19.1747 14.4274 18.8383C14.3699 18.5019 14.3994 18.1531 14.5122 17.8362C14.6249 17.5193 14.8158 17.2484 15.0608 17.0578C15.3057 16.8673 15.5937 16.7656 15.8883 16.7656C16.2833 16.7656 16.6622 16.9483 16.9416 17.2735C17.2209 17.5988 17.3778 18.0399 17.3778 18.4999ZM11.9162 18.4999C11.9162 18.843 11.8289 19.1783 11.6652 19.4635C11.5015 19.7487 11.2689 19.971 10.9967 20.1023C10.7245 20.2336 10.425 20.2679 10.1361 20.201C9.84716 20.1341 9.58175 19.9689 9.37344 19.7263C9.16512 19.4838 9.02326 19.1747 8.96578 18.8383C8.90831 18.5019 8.93781 18.1531 9.05055 17.8362C9.16329 17.5193 9.3542 17.2484 9.59916 17.0578C9.84411 16.8673 10.1321 16.7656 10.4267 16.7656C10.8217 16.7656 11.2006 16.9483 11.4799 17.2735C11.7593 17.5988 11.9162 18.0399 11.9162 18.4999ZM22.8394 18.4999C22.8394 18.843 22.7521 19.1783 22.5884 19.4635C22.4247 19.7487 22.1921 19.971 21.9199 20.1023C21.6477 20.2336 21.3482 20.2679 21.0593 20.201C20.7704 20.1341 20.505 19.9689 20.2966 19.7263C20.0883 19.4838 19.9465 19.1747 19.889 18.8383C19.8315 18.5019 19.861 18.1531 19.9738 17.8362C20.0865 17.5193 20.2774 17.2484 20.5224 17.0578C20.7673 16.8673 21.0553 16.7656 21.3499 16.7656C21.7449 16.7656 22.1238 16.9483 22.4032 17.2735C22.6825 17.5988 22.8394 18.0399 22.8394 18.4999Z" fill="#757575"/>
</svg>
