<svg width="32" height="37" viewBox="0 0 32 37" fill="none" xmlns="http://www.w3.org/2000/svg">
<path d="M14.8953 15.0314C14.8953 16.1748 14.6041 17.2925 14.0585 18.2433C13.5129 19.194 12.7375 19.935 11.8302 20.3726C10.923 20.8101 9.92468 20.9246 8.96155 20.7015C7.99841 20.4785 7.11372 19.9279 6.41934 19.1193C5.72496 18.3108 5.25208 17.2807 5.0605 16.1592C4.86892 15.0378 4.96724 13.8754 5.34304 12.819C5.71884 11.7626 6.35522 10.8597 7.17173 10.2244C7.98824 9.58919 8.94819 9.25012 9.93019 9.25012C11.247 9.25012 12.5099 9.85922 13.441 10.9434C14.3722 12.0276 14.8953 13.4981 14.8953 15.0314Z" fill="black" fill-opacity="0.04"/>
<path d="M17.8743 11.5625C17.8743 11.2559 17.979 10.9618 18.1652 10.7449C18.3514 10.5281 18.604 10.4063 18.8674 10.4063H30.7836C31.047 10.4063 31.2995 10.5281 31.4858 10.7449C31.672 10.9618 31.7766 11.2559 31.7766 11.5625C31.7766 11.8692 31.672 12.1633 31.4858 12.3801C31.2995 12.5969 31.047 12.7188 30.7836 12.7188H18.8674C18.604 12.7188 18.3514 12.5969 18.1652 12.3801C17.979 12.1633 17.8743 11.8692 17.8743 11.5625ZM30.7836 17.3438H18.8674C18.604 17.3438 18.3514 17.4656 18.1652 17.6824C17.979 17.8993 17.8743 18.1934 17.8743 18.5C17.8743 18.8067 17.979 19.1008 18.1652 19.3176C18.3514 19.5344 18.604 19.6563 18.8674 19.6563H30.7836C31.047 19.6563 31.2995 19.5344 31.4858 19.3176C31.672 19.1008 31.7766 18.8067 31.7766 18.5C31.7766 18.1934 31.672 17.8993 31.4858 17.6824C31.2995 17.4656 31.047 17.3438 30.7836 17.3438ZM30.7836 24.2813H21.8464C21.5831 24.2813 21.3305 24.4031 21.1442 24.6199C20.958 24.8368 20.8534 25.1309 20.8534 25.4375C20.8534 25.7442 20.958 26.0383 21.1442 26.2551C21.3305 26.4719 21.5831 26.5938 21.8464 26.5938H30.7836C31.047 26.5938 31.2995 26.4719 31.4858 26.2551C31.672 26.0383 31.7766 25.7442 31.7766 25.4375C31.7766 25.1309 31.672 24.8368 31.4858 24.6199C31.2995 24.4031 31.047 24.2813 30.7836 24.2813ZM18.8363 27.461C18.8688 27.6081 18.876 27.7612 18.8577 27.9115C18.8393 28.0619 18.7957 28.2066 18.7293 28.3373C18.6629 28.468 18.575 28.5822 18.4707 28.6734C18.3664 28.7646 18.2477 28.8309 18.1214 28.8687C18.0404 28.8941 17.9569 28.9067 17.8731 28.9063C17.6529 28.9064 17.4388 28.8213 17.2647 28.6643C17.0906 28.5073 16.9662 28.2874 16.9111 28.0391C16.1465 24.579 13.1451 21.9688 9.92895 21.9688C6.71281 21.9688 3.71141 24.5776 2.94678 28.0391C2.88094 28.3362 2.71644 28.5906 2.48948 28.7465C2.26252 28.9023 1.99167 28.9468 1.73654 28.8701C1.48141 28.7935 1.26288 28.6019 1.12902 28.3377C0.995174 28.0734 0.956966 27.758 1.02281 27.461C1.71668 24.3232 3.73375 21.7823 6.29326 20.5235C5.30772 19.6396 4.5845 18.4187 4.22502 17.032C3.86555 15.6454 3.88784 14.1625 4.28878 12.7913C4.68972 11.4201 5.44919 10.2295 6.46069 9.38631C7.47218 8.54315 8.68497 8.08977 9.92895 8.08977C11.1729 8.08977 12.3857 8.54315 13.3972 9.38631C14.4087 10.2295 15.1682 11.4201 15.5691 12.7913C15.9701 14.1625 15.9923 15.6454 15.6329 17.032C15.2734 18.4187 14.5502 19.6396 13.5646 20.5235C16.1254 21.7823 18.1425 24.3232 18.8363 27.461ZM9.93019 19.6563C10.7158 19.6563 11.4837 19.385 12.137 18.8768C12.7902 18.3686 13.2993 17.6463 13.5999 16.8012C13.9005 15.9561 13.9792 15.0261 13.8259 14.129C13.6727 13.2318 13.2944 12.4077 12.7389 11.7609C12.1834 11.1141 11.4756 10.6736 10.7051 10.4951C9.93459 10.3167 9.13594 10.4083 8.41014 10.7583C7.68434 11.1084 7.06398 11.7012 6.62753 12.4617C6.19107 13.2223 5.95811 14.1165 5.95811 15.0313C5.95811 16.2579 6.3766 17.4343 7.12151 18.3016C7.86641 19.169 8.87673 19.6563 9.93019 19.6563Z" fill="#757575"/>
</svg>
