<svg width="32" height="37" viewBox="0 0 32 37" fill="none" xmlns="http://www.w3.org/2000/svg">
<path d="M27.8045 18.5C27.8063 20.4459 27.4557 22.3703 26.7755 24.1477C26.0954 25.9251 25.101 27.5155 23.8573 28.8152C23.1095 27.1027 21.9692 25.6646 20.5627 24.6602C19.1561 23.6559 17.5383 23.1245 15.8883 23.125C16.8703 23.125 17.8303 22.786 18.6468 22.1507C19.4633 21.5155 20.0997 20.6125 20.4754 19.5562C20.8512 18.4998 20.9496 17.3374 20.758 16.2159C20.5664 15.0945 20.0935 14.0643 19.3992 13.2558C18.7048 12.4473 17.8201 11.8967 16.8569 11.6736C15.8938 11.4505 14.8955 11.565 13.9882 12.0026C13.081 12.4402 12.3055 13.1812 11.76 14.1319C11.2144 15.0826 10.9232 16.2003 10.9232 17.3438C10.9232 18.8771 11.4463 20.3475 12.3774 21.4317C13.3086 22.5159 14.5715 23.125 15.8883 23.125C14.2383 23.1245 12.6205 23.6559 11.2139 24.6602C9.80739 25.6646 8.66707 27.1027 7.91932 28.8152C6.44252 27.2685 5.3212 25.3165 4.65733 23.1367C3.99345 20.9569 3.80809 18.6184 4.11809 16.3339C4.42809 14.0494 5.22362 11.8914 6.43234 10.0561C7.64105 8.22077 9.22461 6.76638 11.039 5.82518C12.8534 4.88398 14.8411 4.48583 16.8213 4.66692C18.8015 4.84801 20.7115 5.60261 22.3774 6.86208C24.0434 8.12156 25.4125 9.84597 26.3604 11.8785C27.3082 13.911 27.8046 16.1872 27.8045 18.5Z" fill="black" fill-opacity="0.04"/>
<path d="M20.8534 8.09369C20.8534 7.78703 20.958 7.49294 21.1442 7.2761C21.3305 7.05926 21.5831 6.93744 21.8464 6.93744H23.8325V4.62494C23.8325 4.31828 23.9371 4.02419 24.1233 3.80735C24.3095 3.59051 24.5621 3.46869 24.8255 3.46869C25.0888 3.46869 25.3414 3.59051 25.5276 3.80735C25.7139 4.02419 25.8185 4.31828 25.8185 4.62494V6.93744H27.8045C28.0679 6.93744 28.3205 7.05926 28.5067 7.2761C28.6929 7.49294 28.7976 7.78703 28.7976 8.09369C28.7976 8.40035 28.6929 8.69444 28.5067 8.91128C28.3205 9.12812 28.0679 9.24994 27.8045 9.24994H25.8185V11.5624C25.8185 11.8691 25.7139 12.1632 25.5276 12.38C25.3414 12.5969 25.0888 12.7187 24.8255 12.7187C24.5621 12.7187 24.3095 12.5969 24.1233 12.38C23.9371 12.1632 23.8325 11.8691 23.8325 11.5624V9.24994H21.8464C21.5831 9.24994 21.3305 9.12812 21.1442 8.91128C20.958 8.69444 20.8534 8.40035 20.8534 8.09369ZM28.6188 15.9967C29.0725 19.1367 28.6574 22.3634 27.4334 25.2108C26.2095 28.0582 24.24 30.379 21.8094 31.8382C19.3788 33.2973 16.6129 33.8193 13.9109 33.3288C11.2089 32.8382 8.71072 31.3604 6.77704 29.1089C4.84336 26.8574 3.57425 23.9486 3.15293 20.8024C2.73162 17.6563 3.1799 14.4356 4.43307 11.6055C5.68623 8.77537 7.67942 6.48219 10.1249 5.05705C12.5703 3.63192 15.3415 3.14857 18.0382 3.67681C18.296 3.72989 18.5253 3.89934 18.6763 4.14829C18.8274 4.39724 18.8879 4.70557 18.8447 5.00619C18.8015 5.30681 18.6581 5.57541 18.4457 5.75357C18.2333 5.93173 17.9691 6.00502 17.7105 5.95752C16.1442 5.65072 14.5392 5.74502 13.0074 6.23387C11.4756 6.72272 10.0536 7.59437 8.8405 8.78816C7.62739 9.98196 6.65227 11.4692 5.98299 13.1464C5.31371 14.8236 4.96635 16.6505 4.9651 18.4999C4.96274 21.6134 5.94551 24.6188 7.72569 26.942C8.83319 25.0733 10.3905 23.6277 12.2017 22.7867C11.2288 21.8945 10.5188 20.6714 10.1706 19.2875C9.82234 17.9036 9.85311 16.4278 10.2586 15.0652C10.6641 13.7027 11.4242 12.5211 12.4332 11.6848C13.4421 10.8486 14.6498 10.3992 15.8883 10.3992C17.1268 10.3992 18.3345 10.8486 19.3434 11.6848C20.3524 12.5211 21.1125 13.7027 21.518 15.0652C21.9235 16.4278 21.9543 17.9036 21.606 19.2875C21.2578 20.6714 20.5478 21.8945 19.5749 22.7867C21.3861 23.6277 22.9434 25.0733 24.0509 26.942C25.8311 24.6188 26.8139 21.6134 26.8115 18.4999C26.8116 17.789 26.7609 17.0794 26.6601 16.3782C26.6372 16.2278 26.6402 16.0736 26.6688 15.9246C26.6975 15.7755 26.7512 15.6345 26.8269 15.5098C26.9025 15.385 26.9987 15.279 27.1098 15.1977C27.2209 15.1165 27.3447 15.0617 27.4741 15.0365C27.6034 15.0113 27.7358 15.0162 27.8636 15.0509C27.9913 15.0856 28.1119 15.1494 28.2183 15.2387C28.3248 15.328 28.415 15.4409 28.4837 15.571C28.5524 15.7011 28.5984 15.8458 28.6188 15.9967ZM15.8883 21.9687C16.6739 21.9687 17.4419 21.6974 18.0951 21.1892C18.7483 20.681 19.2574 19.9587 19.558 19.1136C19.8587 18.2685 19.9373 17.3386 19.7841 16.4414C19.6308 15.5442 19.2525 14.7201 18.697 14.0733C18.1415 13.4265 17.4337 12.986 16.6632 12.8076C15.8927 12.6291 15.0941 12.7207 14.3683 13.0708C13.6425 13.4208 13.0221 14.0136 12.5856 14.7742C12.1492 15.5348 11.9162 16.429 11.9162 17.3437C11.9162 18.5703 12.3347 19.7467 13.0796 20.6141C13.8245 21.4814 14.8348 21.9687 15.8883 21.9687ZM15.8883 31.2187C18.313 31.2216 20.6688 30.2804 22.5813 28.5449C21.8629 27.2367 20.8733 26.1601 19.7036 25.4144C18.5339 24.6687 17.2218 24.2778 15.8883 24.2778C14.5548 24.2778 13.2427 24.6687 12.073 25.4144C10.9034 26.1601 9.91372 27.2367 9.19536 28.5449C11.1078 30.2804 13.4636 31.2216 15.8883 31.2187Z" fill="#757575"/>
</svg>
