<svg width="16" height="16" viewBox="0 0 16 16" fill="none" xmlns="http://www.w3.org/2000/svg">
<path d="M8.00003 5.49976C7.50558 5.49976 7.02223 5.64639 6.61111 5.92109C6.19999 6.19579 5.87955 6.58624 5.69033 7.04305C5.50112 7.49987 5.45161 8.00254 5.54807 8.48749C5.64453 8.97244 5.88264 9.4179 6.23227 9.76753C6.5819 10.1172 7.02736 10.3553 7.51231 10.4517C7.99726 10.5482 8.49993 10.4987 8.95674 10.3095C9.41356 10.1202 9.804 9.79981 10.0787 9.38869C10.3534 8.97757 10.5 8.49422 10.5 7.99976C10.5 7.33672 10.2366 6.70084 9.7678 6.232C9.29896 5.76316 8.66307 5.49976 8.00003 5.49976ZM8.00003 9.49976C7.70336 9.49976 7.41335 9.41179 7.16668 9.24697C6.92 9.08215 6.72775 8.84788 6.61421 8.57379C6.50068 8.2997 6.47098 7.9981 6.52886 7.70713C6.58673 7.41616 6.72959 7.14888 6.93937 6.9391C7.14915 6.72932 7.41643 6.58646 7.7074 6.52859C7.99837 6.47071 8.29997 6.50041 8.57406 6.61394C8.84815 6.72748 9.08242 6.91973 9.24724 7.16641C9.41206 7.41308 9.50003 7.70309 9.50003 7.99976C9.50003 8.39759 9.342 8.77912 9.06069 9.06042C8.77939 9.34173 8.39786 9.49976 8.00003 9.49976ZM12.6069 9.94601C12.3921 10.4539 12.0947 10.9227 11.7269 11.3335C11.6378 11.4299 11.5145 11.4874 11.3834 11.4936C11.2523 11.4998 11.124 11.4542 11.0262 11.3667C10.9284 11.2792 10.869 11.1567 10.8607 11.0257C10.8524 10.8948 10.8959 10.7658 10.9819 10.6666C11.6384 9.9336 12.0015 8.98413 12.0015 8.00008C12.0015 7.01602 11.6384 6.06655 10.9819 5.33351C10.9369 5.2848 10.902 5.22762 10.8793 5.16529C10.8566 5.10297 10.8465 5.03675 10.8497 4.9705C10.8528 4.90424 10.8691 4.83927 10.8976 4.77937C10.9261 4.71948 10.9662 4.66585 11.0156 4.62161C11.065 4.57737 11.1228 4.5434 11.1855 4.52169C11.2481 4.49998 11.3145 4.49096 11.3807 4.49515C11.4469 4.49934 11.5116 4.51666 11.571 4.5461C11.6305 4.57555 11.6835 4.61652 11.7269 4.66664C12.3582 5.3731 12.7761 6.24425 12.9319 7.17882C13.0877 8.11338 12.975 9.07297 12.6069 9.94601ZM4.31253 6.44289C4.01752 7.14124 3.92704 7.90906 4.05164 8.65686C4.17623 9.40466 4.51078 10.1017 5.01628 10.6666C5.10224 10.7658 5.14577 10.8948 5.13748 11.0257C5.12919 11.1567 5.06974 11.2792 4.97196 11.3667C4.87418 11.4542 4.74591 11.4998 4.61483 11.4936C4.48374 11.4874 4.36035 11.4299 4.27128 11.3335C3.4504 10.4172 2.99647 9.23028 2.99647 8.00008C2.99647 6.76987 3.4504 5.58292 4.27128 4.66664C4.35972 4.5676 4.48387 4.50774 4.61644 4.50024C4.749 4.49274 4.87912 4.53821 4.97816 4.62664C5.0772 4.71507 5.13706 4.83923 5.14456 4.97179C5.15206 5.10436 5.10659 5.23447 5.01816 5.33351C4.72316 5.66169 4.48471 6.03658 4.31253 6.44289ZM15.5 7.99976C15.5031 9.96335 14.7332 11.8492 13.3569 13.2498C13.3114 13.2984 13.2566 13.3375 13.1957 13.3647C13.1348 13.3919 13.0692 13.4067 13.0025 13.4081C12.9359 13.4095 12.8696 13.3976 12.8077 13.3731C12.7457 13.3486 12.6892 13.3119 12.6416 13.2652C12.5941 13.2185 12.5563 13.1628 12.5305 13.1013C12.5048 13.0398 12.4916 12.9738 12.4917 12.9072C12.4919 12.8405 12.5054 12.7745 12.5314 12.7132C12.5574 12.6518 12.5954 12.5962 12.6432 12.5498C13.8349 11.3356 14.5025 9.70229 14.5025 8.00101C14.5025 6.29974 13.8349 4.66641 12.6432 3.45226C12.55 3.35761 12.4983 3.22984 12.4993 3.09704C12.5004 2.96424 12.5541 2.8373 12.6488 2.74414C12.7434 2.65098 12.8712 2.59924 13.004 2.60029C13.1368 2.60135 13.2638 2.65511 13.3569 2.74976C14.7332 4.15028 15.5031 6.03618 15.5 7.99976ZM3.35691 12.5485C3.40295 12.5954 3.43932 12.6509 3.46392 12.7118C3.48853 12.7727 3.50089 12.8379 3.50031 12.9036C3.49973 12.9693 3.48622 13.0342 3.46054 13.0947C3.43486 13.1551 3.39752 13.21 3.35066 13.256C3.30379 13.3021 3.24832 13.3384 3.1874 13.363C3.12648 13.3876 3.06131 13.4 2.99561 13.3994C2.92992 13.3988 2.86498 13.3853 2.8045 13.3596C2.74403 13.334 2.6892 13.2966 2.64316 13.2498C1.26702 11.8488 0.495972 9.96354 0.495972 7.99976C0.495972 6.03599 1.26702 4.15072 2.64316 2.74976C2.68869 2.70108 2.7435 2.66199 2.80436 2.6348C2.86522 2.60761 2.9309 2.59286 2.99754 2.59142C3.06418 2.58999 3.13044 2.60189 3.19242 2.62643C3.25439 2.65097 3.31083 2.68766 3.35842 2.73433C3.40601 2.78101 3.44379 2.83672 3.46953 2.89821C3.49528 2.9597 3.50847 3.02571 3.50832 3.09237C3.50818 3.15902 3.49472 3.22498 3.46871 3.28636C3.44271 3.34773 3.4047 3.40329 3.35691 3.44976C2.1652 4.66391 1.49756 6.29724 1.49756 7.99851C1.49756 9.69979 2.1652 11.3331 3.35691 12.5473V12.5485Z" fill="black"/>
</svg>
