<svg width="16" height="16" viewBox="0 0 16 16" fill="none" xmlns="http://www.w3.org/2000/svg">
<path d="M10.0001 2.5C8.97861 2.50078 7.97752 2.78571 7.10875 3.32291C6.23998 3.86011 5.53778 4.62841 5.08068 5.54187C4.53691 5.46257 3.98262 5.49616 3.4524 5.64055C2.92218 5.78494 2.4274 6.03703 1.99892 6.38111C1.57044 6.72518 1.21746 7.15385 0.961977 7.64038C0.706498 8.12691 0.55401 8.66086 0.514022 9.20893C0.474035 9.75701 0.547407 10.3074 0.729561 10.8259C0.911716 11.3444 1.19875 11.8197 1.57275 12.2223C1.94675 12.625 2.3997 12.9462 2.90335 13.166C3.40699 13.3859 3.95053 13.4995 4.50006 13.5H10.0001C11.4587 13.5 12.8577 12.9205 13.8891 11.8891C14.9206 10.8576 15.5001 9.45869 15.5001 8C15.5001 6.54131 14.9206 5.14236 13.8891 4.11091C12.8577 3.07946 11.4587 2.5 10.0001 2.5ZM10.0001 12.5H4.50006C3.70441 12.5 2.94135 12.1839 2.37874 11.6213C1.81613 11.0587 1.50006 10.2956 1.50006 9.5C1.50006 8.70435 1.81613 7.94129 2.37874 7.37868C2.94135 6.81607 3.70441 6.5 4.50006 6.5C4.56881 6.5 4.63756 6.5 4.70568 6.50688C4.56895 6.99279 4.49976 7.49521 4.50006 8C4.50006 8.13261 4.55274 8.25979 4.64651 8.35355C4.74027 8.44732 4.86745 8.5 5.00006 8.5C5.13267 8.5 5.25984 8.44732 5.35361 8.35355C5.44738 8.25979 5.50006 8.13261 5.50006 8C5.50006 7.10998 5.76398 6.23995 6.25845 5.49993C6.75291 4.75991 7.45572 4.18314 8.27798 3.84254C9.10025 3.50195 10.0051 3.41283 10.878 3.58647C11.7509 3.7601 12.5527 4.18868 13.182 4.81802C13.8114 5.44736 14.24 6.24918 14.4136 7.12209C14.5872 7.99501 14.4981 8.89981 14.1575 9.72208C13.8169 10.5443 13.2401 11.2471 12.5001 11.7416C11.7601 12.2361 10.8901 12.5 10.0001 12.5ZM11.8538 7.35375L10.7069 8.5L11.8538 9.64625C11.9003 9.6927 11.9371 9.74786 11.9623 9.80855C11.9874 9.86925 12.0003 9.9343 12.0003 10C12.0003 10.0657 11.9874 10.1308 11.9623 10.1914C11.9371 10.2521 11.9003 10.3073 11.8538 10.3538C11.8074 10.4002 11.7522 10.4371 11.6915 10.4622C11.6308 10.4873 11.5658 10.5003 11.5001 10.5003C11.4344 10.5003 11.3693 10.4873 11.3086 10.4622C11.2479 10.4371 11.1928 10.4002 11.1463 10.3538L10.0001 9.20687L8.85381 10.3538C8.75999 10.4476 8.63274 10.5003 8.50006 10.5003C8.36738 10.5003 8.24013 10.4476 8.14631 10.3538C8.05249 10.2599 7.99978 10.1327 7.99978 10C7.99978 9.86732 8.05249 9.74007 8.14631 9.64625L9.29318 8.5L8.14631 7.35375C8.05249 7.25993 7.99978 7.13268 7.99978 7C7.99978 6.86732 8.05249 6.74007 8.14631 6.64625C8.24013 6.55243 8.36738 6.49972 8.50006 6.49972C8.63274 6.49972 8.75999 6.55243 8.85381 6.64625L10.0001 7.79313L11.1463 6.64625C11.1928 6.59979 11.2479 6.56294 11.3086 6.5378C11.3693 6.51266 11.4344 6.49972 11.5001 6.49972C11.5658 6.49972 11.6308 6.51266 11.6915 6.5378C11.7522 6.56294 11.8074 6.59979 11.8538 6.64625C11.9003 6.6927 11.9371 6.74786 11.9623 6.80855C11.9874 6.86925 12.0003 6.9343 12.0003 7C12.0003 7.0657 11.9874 7.13075 11.9623 7.19145C11.9371 7.25214 11.9003 7.3073 11.8538 7.35375Z" fill="black"/>
</svg>
