<svg width="756" height="243" viewBox="0 0 756 243" fill="none" xmlns="http://www.w3.org/2000/svg">
<mask id="mask0_0_3247" style="mask-type:alpha" maskUnits="userSpaceOnUse" x="0" y="0" width="756" height="243">
<rect width="756" height="243" fill="black"/>
</mask>
<g mask="url(#mask0_0_3247)">
<mask id="mask1_0_3247" style="mask-type:alpha" maskUnits="userSpaceOnUse" x="0" y="34" width="756" height="209">
<path d="M41.1279 129.181L0 142.597V243H756V67.9494L705.566 73.2561C702.253 73.6047 699.08 74.7751 696.335 76.661L657.422 103.39C650.416 108.203 641.134 108.062 634.277 103.038L599.968 77.8991C591.533 71.7192 580.49 70.3766 570.821 74.3555L540.123 86.9874C533.25 89.8156 525.342 87.1844 521.534 80.8022L498.189 41.68C493.029 33.0314 480.98 31.8249 474.207 39.2785L461.773 52.9616C453.211 62.3841 440.674 67.1677 428.012 65.8441L388.739 61.7391C381.66 60.9992 374.722 64.0769 370.519 69.8207L331.913 122.584C327.797 128.208 321.052 131.285 314.107 130.705L252.703 125.575C242.525 124.725 232.408 127.8 224.424 134.171L208.055 147.233C196.283 156.627 182.098 162.507 167.133 164.196L134.104 167.926C130.261 168.36 126.501 169.349 122.941 170.862L108.221 177.121C99.0546 181.018 88.4176 177.576 83.2716 169.048L64.4542 137.862C59.6458 129.893 49.9761 126.295 41.1279 129.181Z" fill="url(#paint0_radial_0_3247)"/>
</mask>
<g mask="url(#mask1_0_3247)">
<path opacity="0.6" d="M41.1279 129.181L0 142.597V243H756V67.9494L705.566 73.2561C702.253 73.6047 699.08 74.775 696.335 76.661L657.422 103.391C650.416 108.203 641.134 108.062 634.277 103.038L599.968 77.8991C591.533 71.7192 580.49 70.3766 570.821 74.3555L540.123 86.9874C533.25 89.8156 525.342 87.1844 521.534 80.8022L498.189 41.68C493.029 33.0314 480.98 31.8249 474.207 39.2785L461.773 52.9616C453.211 62.3841 440.674 67.1677 428.012 65.8441L388.739 61.7391C381.66 60.9992 374.722 64.0769 370.519 69.8207L331.913 122.584C327.797 128.208 321.052 131.285 314.107 130.705L252.703 125.575C242.525 124.725 232.408 127.8 224.424 134.171L208.055 147.233C196.283 156.626 182.098 162.507 167.133 164.196L134.104 167.926C130.261 168.36 126.501 169.349 122.941 170.862L108.221 177.121C99.0546 181.018 88.4176 177.576 83.2716 169.048L64.4542 137.862C59.6458 129.893 49.9761 126.295 41.1279 129.181Z" fill="black"/>
</g>
<path d="M0 142.113L32.1252 131.677C40.7383 128.879 45.0449 127.48 49.1047 127.838C52.6861 128.154 56.1162 129.429 59.034 131.53C62.3415 133.911 64.6879 137.784 69.3807 145.53L77.8939 159.581C82.9824 167.979 85.5267 172.179 89.1186 174.626C92.284 176.783 96.0022 177.985 99.831 178.09C104.176 178.209 108.697 176.295 117.74 172.466L119.746 171.616C122.95 170.26 124.552 169.581 126.2 169.046C127.664 168.571 129.155 168.18 130.664 167.877C132.362 167.535 134.091 167.341 137.549 166.952L154.866 165.004C167.098 163.629 173.214 162.941 179.059 161.367C185.697 159.58 192.076 156.944 198.04 153.526C203.292 150.516 208.111 146.687 217.747 139.028C224.347 133.783 227.647 131.161 231.296 129.317C235.437 127.225 239.911 125.869 244.518 125.31C248.576 124.818 252.777 125.168 261.178 125.867L307.446 129.716C313.956 130.258 317.211 130.528 320.219 129.846C322.881 129.242 325.392 128.1 327.596 126.489C330.086 124.669 332.02 122.037 335.887 116.772L366.447 75.1768C370.405 69.7901 372.384 67.0968 374.937 65.255C377.196 63.6253 379.771 62.4856 382.496 61.9088C385.577 61.257 388.901 61.603 395.549 62.2951L418.865 64.7222C427.856 65.6582 432.352 66.1262 436.628 65.6513C443.373 64.9023 449.816 62.4497 455.352 58.5243C458.862 56.0353 461.908 52.6963 468.001 46.0184C473.616 39.8656 476.423 36.7891 479.412 35.5103C484.148 33.4841 489.592 34.03 493.832 36.956C496.508 38.8028 498.648 42.3753 502.929 49.5201L517.56 73.9389C521.322 80.2177 523.203 83.3571 525.871 85.2022C528.223 86.8284 530.99 87.7487 533.847 87.8545C537.089 87.9747 540.476 86.5869 547.248 83.8113L561.564 77.9445C570.622 74.2324 575.151 72.3764 579.758 71.9925C583.835 71.6527 587.939 72.1506 591.817 73.4554C596.199 74.9298 600.152 77.815 608.06 83.5852L627.458 97.7401C634.035 102.54 637.324 104.94 640.931 105.904C644.117 106.756 647.463 106.807 650.674 106.052C654.308 105.198 657.668 102.899 664.389 98.3017L693.837 78.1561C696.327 76.4527 697.572 75.601 698.912 74.9513C700.102 74.3745 701.346 73.9171 702.627 73.586C704.069 73.213 705.569 73.0558 708.57 72.7414L756 67.7711" stroke="url(#paint1_linear_0_3247)" stroke-width="2" stroke-linecap="round"/>
<path d="M0 142.113L32.1252 131.677C40.7383 128.879 45.0449 127.48 49.1047 127.838C52.6861 128.154 56.1162 129.429 59.034 131.53C62.3415 133.911 64.6879 137.784 69.3807 145.53L77.8939 159.581C82.9824 167.979 85.5267 172.179 89.1186 174.626C92.284 176.783 96.0022 177.985 99.831 178.09C104.176 178.209 108.697 176.295 117.74 172.466L119.746 171.616C122.95 170.26 124.552 169.581 126.2 169.046C127.664 168.571 129.155 168.18 130.664 167.877C132.362 167.535 134.091 167.341 137.549 166.952L154.866 165.004C167.098 163.629 173.214 162.941 179.059 161.367C185.697 159.58 192.076 156.944 198.04 153.526C203.292 150.516 208.111 146.687 217.747 139.028C224.347 133.783 227.647 131.161 231.296 129.317C235.437 127.225 239.911 125.869 244.518 125.31C248.576 124.818 252.777 125.168 261.178 125.867L307.446 129.716C313.956 130.258 317.211 130.528 320.219 129.846C322.881 129.242 325.392 128.1 327.596 126.489C330.086 124.669 332.02 122.037 335.887 116.772L366.447 75.1768C370.405 69.7901 372.384 67.0968 374.937 65.255C377.196 63.6253 379.771 62.4856 382.496 61.9088C385.577 61.257 388.901 61.603 395.549 62.2951L418.865 64.7222C427.856 65.6582 432.352 66.1262 436.628 65.6513C443.373 64.9023 449.816 62.4497 455.352 58.5243C458.862 56.0353 461.908 52.6963 468.001 46.0184C473.616 39.8656 476.423 36.7891 479.412 35.5103C484.148 33.4841 489.592 34.03 493.832 36.956C496.508 38.8028 498.648 42.3753 502.929 49.5201L517.56 73.9389C521.322 80.2177 523.203 83.3571 525.871 85.2022C528.223 86.8284 530.99 87.7487 533.847 87.8545C537.089 87.9747 540.476 86.5869 547.248 83.8113L561.564 77.9445C570.622 74.2324 575.151 72.3764 579.758 71.9925C583.835 71.6527 587.939 72.1506 591.817 73.4554C596.199 74.9298 600.152 77.815 608.06 83.5852L627.458 97.7401C634.035 102.54 637.324 104.94 640.931 105.904C644.117 106.756 647.463 106.807 650.674 106.052C654.308 105.198 657.668 102.899 664.389 98.3017L693.837 78.1561C696.327 76.4527 697.572 75.601 698.912 74.9513C700.102 74.3745 701.346 73.9171 702.627 73.586C704.069 73.213 705.569 73.0558 708.57 72.7414L756 67.7711" stroke="#0066F8" stroke-width="2" stroke-linecap="round" style="mix-blend-mode:screen"/>
</g>
<defs>
<radialGradient id="paint0_radial_0_3247" cx="0" cy="0" r="1" gradientUnits="userSpaceOnUse" gradientTransform="translate(377.999 64.4735) rotate(90) scale(149.67 377.999)">
<stop stop-opacity="0.1"/>
<stop offset="1" stop-opacity="0"/>
</radialGradient>
<linearGradient id="paint1_linear_0_3247" x1="3.56364" y1="201.207" x2="756" y2="201.207" gradientUnits="userSpaceOnUse">
<stop stop-opacity="0.4"/>
<stop offset="1"/>
</linearGradient>
</defs>
</svg>
