<svg width="16" height="16" viewBox="0 0 16 16" fill="none" xmlns="http://www.w3.org/2000/svg">
<path d="M14.4325 13.2502C13.4807 11.6046 12.0138 10.4246 10.3019 9.86524C11.1487 9.36115 11.8066 8.59303 12.1746 7.67886C12.5425 6.76468 12.6002 5.75499 12.3388 4.80483C12.0774 3.85468 11.5113 3.01661 10.7275 2.41931C9.94372 1.82202 8.9855 1.49854 8.00005 1.49854C7.01459 1.49854 6.05638 1.82202 5.27256 2.41931C4.48875 3.01661 3.92267 3.85468 3.66126 4.80483C3.39985 5.75499 3.45756 6.76468 3.82554 7.67886C4.19351 8.59303 4.8514 9.36115 5.69817 9.86524C3.9863 10.424 2.51942 11.604 1.56755 13.2502C1.53264 13.3072 1.50949 13.3705 1.49945 13.4365C1.48942 13.5025 1.49271 13.5699 1.50912 13.6346C1.52554 13.6993 1.55476 13.7601 1.59504 13.8133C1.63533 13.8666 1.68587 13.9112 1.74369 13.9446C1.8015 13.978 1.86542 13.9995 1.93168 14.0078C1.99793 14.0161 2.06517 14.011 2.12944 13.9929C2.1937 13.9748 2.25369 13.944 2.30585 13.9023C2.35802 13.8606 2.40131 13.8089 2.43317 13.7502C3.61067 11.7152 5.69192 10.5002 8.00005 10.5002C10.3082 10.5002 12.3894 11.7152 13.5669 13.7502C13.5988 13.8089 13.6421 13.8606 13.6942 13.9023C13.7464 13.944 13.8064 13.9748 13.8707 13.9929C13.9349 14.011 14.0022 14.0161 14.0684 14.0078C14.1347 13.9995 14.1986 13.978 14.2564 13.9446C14.3142 13.9112 14.3648 13.8666 14.4051 13.8133C14.4453 13.7601 14.4746 13.6993 14.491 13.6346C14.5074 13.5699 14.5107 13.5025 14.5006 13.4365C14.4906 13.3705 14.4675 13.3072 14.4325 13.2502ZM4.50005 6.00024C4.50005 5.308 4.70532 4.63131 5.0899 4.05574C5.47449 3.48017 6.02111 3.03156 6.66066 2.76666C7.3002 2.50175 8.00393 2.43244 8.68286 2.56749C9.3618 2.70254 9.98544 3.03588 10.4749 3.52536C10.9644 4.01485 11.2977 4.63849 11.4328 5.31742C11.5678 5.99635 11.4985 6.70009 11.2336 7.33963C10.9687 7.97917 10.5201 8.52579 9.94454 8.91038C9.36897 9.29496 8.69228 9.50024 8.00005 9.50024C7.07209 9.49924 6.18243 9.13018 5.52627 8.47401C4.87011 7.81785 4.50104 6.92819 4.50005 6.00024Z" fill="black"/>
</svg>
