<svg width="16" height="16" viewBox="0 0 16 16" fill="none" xmlns="http://www.w3.org/2000/svg">
<path d="M13.5574 14.3563C13.4693 14.4482 13.3505 14.4998 13.2268 14.5C13.1013 14.4994 12.9809 14.448 12.8902 14.3563L10.3393 11.65C9.26499 12.6051 7.88377 13.0844 6.48373 12.9878C5.08368 12.8912 3.77291 12.2263 2.82479 11.1316C1.87667 10.037 1.3644 8.5972 1.39484 7.11251C1.42527 5.62782 1.99605 4.21289 2.98813 3.1628C3.98021 2.11272 5.317 1.50858 6.71969 1.47636C8.12237 1.44415 9.48266 1.98636 10.5168 2.98991C11.551 3.99346 12.1792 5.38086 12.2705 6.86276C12.3617 8.34465 11.9089 9.80662 11.0066 10.9438L13.5574 13.6438C13.6021 13.6903 13.6375 13.7457 13.6617 13.8069C13.6859 13.8681 13.6984 13.9337 13.6984 14C13.6984 14.0663 13.6859 14.132 13.6617 14.1931C13.6375 14.2543 13.6021 14.3097 13.5574 14.3563ZM6.84959 12C7.73716 12 8.6048 11.7214 9.34279 11.1995C10.0808 10.6775 10.656 9.9357 10.9956 9.06775C11.3353 8.1998 11.4242 7.24474 11.251 6.32333C11.0778 5.40192 10.6504 4.55555 10.0228 3.89125C9.39522 3.22695 8.5956 2.77455 7.72508 2.59128C6.85456 2.408 5.95225 2.50206 5.13224 2.86158C4.31223 3.22109 3.61135 3.82991 3.11825 4.61105C2.62514 5.39218 2.36194 6.31054 2.36194 7.25001C2.3635 8.50928 2.83681 9.7165 3.67807 10.6069C4.51933 11.4974 5.65987 11.9984 6.84959 12Z" fill="black"/>
</svg>
