<svg width="32" height="37" viewBox="0 0 32 37" fill="none" xmlns="http://www.w3.org/2000/svg">
<path d="M27.8043 18.5C27.8045 20.9367 27.2537 23.3305 26.2071 25.4406C25.1606 27.5507 23.6552 29.3027 21.8425 30.5203C20.0298 31.7379 17.9736 32.3782 15.8809 32.3767C13.7882 32.3753 11.7327 31.7321 9.92126 30.512L5.28014 32.3143C5.10517 32.3822 4.91741 32.3921 4.73791 32.3428C4.5584 32.2934 4.39424 32.1869 4.26382 32.035C4.1334 31.8832 4.04188 31.692 3.99952 31.483C3.95715 31.274 3.96562 31.0554 4.02397 30.8516L5.57184 25.4476C4.65691 23.6049 4.11833 21.5419 3.99778 19.418C3.87723 17.2942 4.17794 15.1665 4.87664 13.1997C5.57534 11.2328 6.6533 9.47948 8.02711 8.07535C9.40092 6.67123 11.0337 5.65395 12.7993 5.10223C14.5648 4.55051 16.4156 4.47914 18.2086 4.89364C20.0016 5.30814 21.6887 6.19739 23.1393 7.4926C24.5899 8.78781 25.7651 10.4542 26.574 12.363C27.3829 14.2717 27.8039 16.3715 27.8043 18.5Z" fill="black" fill-opacity="0.04"/>
<path d="M15.8885 3.46875C13.6597 3.46818 11.4688 4.1395 9.52899 5.41736C7.58917 6.69522 5.96653 8.53609 4.819 10.7608C3.67147 12.9855 3.03816 15.5182 2.98069 18.1125C2.92323 20.7067 3.44358 23.2741 4.49109 25.5647L3.08224 30.486C2.96555 30.8934 2.94861 31.3307 3.03334 31.7487C3.11806 32.1667 3.3011 32.549 3.56194 32.8527C3.82277 33.1565 4.1511 33.3696 4.51011 33.4682C4.86913 33.5669 5.24465 33.5472 5.59458 33.4113L9.82112 31.7709C11.5524 32.8431 13.4707 33.4419 15.4305 33.522C17.3902 33.6021 19.3399 33.1612 21.1314 32.233C22.923 31.3047 24.5094 29.9134 25.7702 28.1646C27.0311 26.4159 27.9332 24.3557 28.4081 22.1404C28.883 19.925 28.9182 17.6129 28.5111 15.3793C28.104 13.1458 27.2652 11.0496 26.0585 9.24988C24.8517 7.45015 23.3087 5.99417 21.5466 4.99248C19.7844 3.99078 17.8494 3.46969 15.8885 3.46875ZM15.8885 31.2188C13.9682 31.2203 12.0816 30.6315 10.4194 29.5118C10.2686 29.4099 10.0973 29.3561 9.9229 29.3557C9.81607 29.3558 9.70997 29.3763 9.60886 29.4164L4.96526 31.2188L6.51312 25.8133C6.55774 25.658 6.57351 25.4934 6.55939 25.3304C6.54527 25.1675 6.50157 25.0099 6.4312 24.868C5.22713 22.4441 4.7437 19.6253 5.05591 16.8488C5.36811 14.0723 6.4585 11.4934 8.15792 9.51217C9.85734 7.5309 12.0708 6.25801 14.4549 5.89098C16.839 5.52395 19.2605 6.08328 21.3438 7.48221C23.427 8.88115 25.0555 11.0415 25.9767 13.6281C26.8979 16.2147 27.0603 19.0829 26.4386 21.7879C25.8169 24.4929 24.4459 26.8834 22.5384 28.5886C20.6308 30.2938 18.2933 31.2183 15.8885 31.2188ZM17.378 18.5C17.378 18.843 17.2906 19.1784 17.127 19.4636C16.9633 19.7488 16.7307 19.9711 16.4585 20.1024C16.1863 20.2336 15.8868 20.268 15.5979 20.201C15.3089 20.1341 15.0435 19.9689 14.8352 19.7264C14.6269 19.4838 14.485 19.1748 14.4276 18.8384C14.3701 18.5019 14.3996 18.1532 14.5123 17.8363C14.6251 17.5194 14.816 17.2485 15.0609 17.0579C15.3059 16.8673 15.5939 16.7656 15.8885 16.7656C16.2835 16.7656 16.6624 16.9484 16.9417 17.2736C17.2211 17.5989 17.378 18.04 17.378 18.5ZM11.9164 18.5C11.9164 18.843 11.829 19.1784 11.6654 19.4636C11.5017 19.7488 11.2691 19.9711 10.9969 20.1024C10.7247 20.2336 10.4252 20.268 10.1363 20.201C9.84733 20.1341 9.58192 19.9689 9.3736 19.7264C9.16529 19.4838 9.02342 19.1748 8.96595 18.8384C8.90848 18.5019 8.93797 18.1532 9.05071 17.8363C9.16345 17.5194 9.35437 17.2485 9.59932 17.0579C9.84427 16.8673 10.1323 16.7656 10.4269 16.7656C10.8219 16.7656 11.2008 16.9484 11.4801 17.2736C11.7595 17.5989 11.9164 18.04 11.9164 18.5ZM22.8396 18.5C22.8396 18.843 22.7522 19.1784 22.5886 19.4636C22.4249 19.7488 22.1923 19.9711 21.9201 20.1024C21.6479 20.2336 21.3484 20.268 21.0595 20.201C20.7705 20.1341 20.5051 19.9689 20.2968 19.7264C20.0885 19.4838 19.9466 19.1748 19.8892 18.8384C19.8317 18.5019 19.8612 18.1532 19.9739 17.8363C20.0867 17.5194 20.2776 17.2485 20.5225 17.0579C20.7675 16.8673 21.0555 16.7656 21.3501 16.7656C21.7451 16.7656 22.124 16.9484 22.4033 17.2736C22.6827 17.5989 22.8396 18.04 22.8396 18.5Z" fill="#757575"/>
</svg>
